<mxfile host="Electron" modified="2024-12-09T14:26:11.190Z" agent="Mozilla/5.0 (Windows NT 10.0; Win64; x64) AppleWebKit/537.36 (KHTML, like Gecko) draw.io/23.1.5 Chrome/120.0.6099.109 Electron/28.1.0 Safari/537.36" etag="QjNY42DbsvLnUG-3oQ3U" version="23.1.5" type="device" pages="2">
  <diagram name="Page-1" id="QbkkgsMDkH_GlrHjEnIB">
    <mxGraphModel dx="1434" dy="836" grid="1" gridSize="10" guides="1" tooltips="1" connect="1" arrows="1" fold="1" page="1" pageScale="1" pageWidth="1169" pageHeight="827" math="0" shadow="0">
      <root>
        <mxCell id="0" />
        <mxCell id="1" parent="0" />
        <mxCell id="xrybCc77rTdmahBuqhCi-16" value="" style="endArrow=none;dashed=1;html=1;dashPattern=1 3;strokeWidth=2;rounded=0;exitX=1;exitY=0.5;exitDx=0;exitDy=0;" edge="1" source="xrybCc77rTdmahBuqhCi-15" parent="1">
          <mxGeometry width="50" height="50" relative="1" as="geometry">
            <mxPoint x="190" y="630" as="sourcePoint" />
            <mxPoint x="1080" y="520" as="targetPoint" />
          </mxGeometry>
        </mxCell>
        <mxCell id="xrybCc77rTdmahBuqhCi-13" value="" style="endArrow=none;dashed=1;html=1;dashPattern=1 3;strokeWidth=2;rounded=0;exitX=1;exitY=0.5;exitDx=0;exitDy=0;" edge="1" source="xrybCc77rTdmahBuqhCi-12" parent="1">
          <mxGeometry width="50" height="50" relative="1" as="geometry">
            <mxPoint x="190" y="470" as="sourcePoint" />
            <mxPoint x="1080" y="360" as="targetPoint" />
          </mxGeometry>
        </mxCell>
        <mxCell id="xrybCc77rTdmahBuqhCi-17" style="edgeStyle=orthogonalEdgeStyle;rounded=0;orthogonalLoop=1;jettySize=auto;html=1;entryX=0.5;entryY=0;entryDx=0;entryDy=0;curved=1;" edge="1" parent="1" source="xrybCc77rTdmahBuqhCi-6" target="xrybCc77rTdmahBuqhCi-11">
          <mxGeometry relative="1" as="geometry" />
        </mxCell>
        <mxCell id="xrybCc77rTdmahBuqhCi-6" value="" style="ellipse;fillColor=#000000;fontColor=#000000;strokeColor=#BD7000;" vertex="1" parent="1">
          <mxGeometry x="200" y="160" width="80" height="80" as="geometry" />
        </mxCell>
        <mxCell id="xrybCc77rTdmahBuqhCi-8" value="Main" style="rounded=1;whiteSpace=wrap;html=1;fontStyle=1;fontSize=18;" vertex="1" parent="1">
          <mxGeometry x="10" y="170" width="120" height="60" as="geometry" />
        </mxCell>
        <mxCell id="xrybCc77rTdmahBuqhCi-10" value="" style="endArrow=none;dashed=1;html=1;dashPattern=1 3;strokeWidth=2;rounded=0;exitX=1;exitY=0.5;exitDx=0;exitDy=0;" edge="1" parent="1" source="xrybCc77rTdmahBuqhCi-8">
          <mxGeometry width="50" height="50" relative="1" as="geometry">
            <mxPoint x="190" y="310" as="sourcePoint" />
            <mxPoint x="1080" y="200" as="targetPoint" />
          </mxGeometry>
        </mxCell>
        <mxCell id="xrybCc77rTdmahBuqhCi-18" style="edgeStyle=orthogonalEdgeStyle;rounded=0;orthogonalLoop=1;jettySize=auto;html=1;curved=1;" edge="1" parent="1" source="xrybCc77rTdmahBuqhCi-11" target="xrybCc77rTdmahBuqhCi-14">
          <mxGeometry relative="1" as="geometry" />
        </mxCell>
        <mxCell id="xrybCc77rTdmahBuqhCi-11" value="" style="ellipse;fillColor=#008a00;fontColor=#ffffff;strokeColor=#005700;" vertex="1" parent="1">
          <mxGeometry x="280" y="320" width="80" height="80" as="geometry" />
        </mxCell>
        <mxCell id="xrybCc77rTdmahBuqhCi-12" value="Dev" style="rounded=1;whiteSpace=wrap;html=1;fontStyle=1;fontSize=18;" vertex="1" parent="1">
          <mxGeometry x="10" y="330" width="120" height="60" as="geometry" />
        </mxCell>
        <mxCell id="xrybCc77rTdmahBuqhCi-14" value="" style="ellipse;fillColor=#1ba1e2;fontColor=#ffffff;strokeColor=#006EAF;" vertex="1" parent="1">
          <mxGeometry x="360" y="480" width="80" height="80" as="geometry" />
        </mxCell>
        <mxCell id="xrybCc77rTdmahBuqhCi-15" value="Feature" style="rounded=1;whiteSpace=wrap;html=1;fontStyle=1;fontSize=18;" vertex="1" parent="1">
          <mxGeometry x="10" y="490" width="120" height="60" as="geometry" />
        </mxCell>
        <mxCell id="pYwc-InU3lfuEUP4mM3F-3" value="ICI" style="html=1;outlineConnect=0;whiteSpace=wrap;shape=mxgraph.archimate3.locationIcon;fillColor=#efd1e4;aspect=fixed;rotation=10;" vertex="1" parent="1">
          <mxGeometry x="400.64" y="390.54" width="63" height="90" as="geometry" />
        </mxCell>
      </root>
    </mxGraphModel>
  </diagram>
  <diagram id="1nuop3o8K1MoOnNfpPs0" name="Page-2">
    <mxGraphModel dx="1434" dy="836" grid="1" gridSize="10" guides="1" tooltips="1" connect="1" arrows="1" fold="1" page="1" pageScale="1" pageWidth="1169" pageHeight="827" math="0" shadow="0">
      <root>
        <mxCell id="0" />
        <mxCell id="1" parent="0" />
        <mxCell id="9DRtTghpru2i6pVYhTJl-1" value="" style="endArrow=none;dashed=1;html=1;dashPattern=1 3;strokeWidth=2;rounded=0;exitX=1;exitY=0.5;exitDx=0;exitDy=0;" edge="1" parent="1" source="9DRtTghpru2i6pVYhTJl-7">
          <mxGeometry width="50" height="50" relative="1" as="geometry">
            <mxPoint x="190" y="470" as="sourcePoint" />
            <mxPoint x="1080" y="360" as="targetPoint" />
          </mxGeometry>
        </mxCell>
        <mxCell id="9DRtTghpru2i6pVYhTJl-2" style="edgeStyle=orthogonalEdgeStyle;rounded=0;orthogonalLoop=1;jettySize=auto;html=1;entryX=0.5;entryY=0;entryDx=0;entryDy=0;curved=1;" edge="1" parent="1" source="9DRtTghpru2i6pVYhTJl-3" target="9DRtTghpru2i6pVYhTJl-6">
          <mxGeometry relative="1" as="geometry" />
        </mxCell>
        <mxCell id="9DRtTghpru2i6pVYhTJl-3" value="" style="ellipse;fillColor=#000000;fontColor=#000000;strokeColor=#BD7000;" vertex="1" parent="1">
          <mxGeometry x="200" y="160" width="80" height="80" as="geometry" />
        </mxCell>
        <mxCell id="9DRtTghpru2i6pVYhTJl-4" value="Main" style="rounded=1;whiteSpace=wrap;html=1;fontStyle=1;fontSize=18;" vertex="1" parent="1">
          <mxGeometry x="10" y="170" width="120" height="60" as="geometry" />
        </mxCell>
        <mxCell id="9DRtTghpru2i6pVYhTJl-5" value="" style="endArrow=none;dashed=1;html=1;dashPattern=1 3;strokeWidth=2;rounded=0;exitX=1;exitY=0.5;exitDx=0;exitDy=0;" edge="1" parent="1" source="9DRtTghpru2i6pVYhTJl-4">
          <mxGeometry width="50" height="50" relative="1" as="geometry">
            <mxPoint x="190" y="310" as="sourcePoint" />
            <mxPoint x="1080" y="200" as="targetPoint" />
          </mxGeometry>
        </mxCell>
        <mxCell id="9DRtTghpru2i6pVYhTJl-6" value="" style="ellipse;fillColor=#008a00;fontColor=#ffffff;strokeColor=#005700;" vertex="1" parent="1">
          <mxGeometry x="280" y="320" width="80" height="80" as="geometry" />
        </mxCell>
        <mxCell id="9DRtTghpru2i6pVYhTJl-7" value="Dev" style="rounded=1;whiteSpace=wrap;html=1;fontStyle=1;fontSize=18;" vertex="1" parent="1">
          <mxGeometry x="10" y="330" width="120" height="60" as="geometry" />
        </mxCell>
      </root>
    </mxGraphModel>
  </diagram>
</mxfile>
